<svg xmlns="http://www.w3.org/2000/svg" width="50" height="311" viewBox="0 0 88 611" fill="none">
  <path d="M69.3502 106.767C69.3502 69.5707 39.1965 39.417 2 39.417V106.767H69.3502Z" fill="#0D25FD"/>
  <path d="M1.99994 548.285C1.99994 582.382 32.1536 610.022 69.3501 610.022L69.3501 548.285L1.99994 548.285Z" fill="#0D25FD"/>
  <rect x="2" y="106.768" width="67.3502" height="441.518" fill="#0D25FD"/>
  <path d="M86.1875 86.1875V589.91" stroke="#0D25FD" stroke-width="3" stroke-linecap="round" stroke-dasharray="6 10"/>
  <path d="M86.1877 86.1877C86.1877 39.6921 48.4956 2 2 2" stroke="#0D25FD" stroke-width="1.5" stroke-linecap="round" stroke-dasharray="6 10"/>
  <path d="M69.3502 159.862C69.3502 114.651 39.1965 78 2 78V159.862H69.3502Z" fill="white" fill-opacity="0.5"/>
  <path d="M1.99994 414.544C1.99994 455.987 32.1536 489.584 69.3501 489.584L69.3501 414.544L1.99994 414.544Z" fill="white" fill-opacity="0.5"/>
  <rect x="2" y="159.862" width="67.3501" height="254.682" fill="white" fill-opacity="0.5"/>
</svg>
