<svg width="100%" height="100%" viewBox="0 0 365 385" version="1.1" xmlns="http://www.w3.org/2000/svg" xmlns:xlink="http://www.w3.org/1999/xlink" class='dashed-circle'>
    <defs>
        <path d="M182.5,383.5 C282.46354,383.5 363.5,297.76253 363.5,192 C363.5,86.2374704 282.46354,0.5 182.5,0.5 C82.5364603,0.5 1.5,86.2374704 1.5,192 C1.5,297.76253 82.5364603,383.5 182.5,383.5 Z" id="circle-border" vector-effect="non-scaling-stroke"></path>
        <mask id="mask-2" maskContentUnits="userSpaceOnUse" maskUnits="objectBoundingBox" x="0" y="0" width="362" height="383" fill="white">
            <use xlink:href="#circle-border"></use>
        </mask>
    </defs>
    <g id="Page-1" stroke="none" stroke-width="1" fill="none" fill-rule="evenodd">
        <g id="Group" transform="translate(0.500000, 0.500000)">
            <use id="Combined-Shape" stroke="#FFFFFF" mask="url(#mask-2)" stroke-width="34" stroke-dasharray="3,8" xlink:href="#circle-border"></use>
            <path d="M362.994921,192.5 C363.329659,192.5 363.664184,192.500969 363.998495,192.502905 L363.996847,383.5 L182.498847,383.498974 C183.000441,278.979978 262.012874,194.215842 360.010048,192.525723 Z" id="Combined-Shape" fill="#0D25FD" transform="translate(273.248847, 288.000000) rotate(-180.000000) translate(-273.248847, -288.000000) "></path>
            <image id="nathan-dumlao-hMReyPJKEUU-unsplash-(1)" x="174" y="40" width="158" height="276" href="/assets/media/nathan-dumlao.png" />
            <path d="M182.5,0 C81.7081476,0 0,86.1853064 0,192.5 L182.5,192.5 L182.5,0 Z" id="Path" fill="#FFFFFF" fill-rule="nonzero"></path>
            <path d="M53.5,192.5 C53.5,116.284802 111.255358,54.5 182.5,54.5" id="Path" stroke="#0D25FD" stroke-width="10"></path>
            <path d="M33.5,192.5 C33.5,279.760838 100.209573,350.5 182.5,350.5 L182.5,192.5 L33.5,192.5 Z" id="Path" fill="#CFD3FF" fill-rule="nonzero"></path>
            <path d="M182.5,295.5 C128.928214,295.5 85.5,249.385505 85.5,192.5" id="Path" stroke="#0D25FD" stroke-width="5"></path>
            <path d="M182.5,306.5 C122.589115,306.5 73.5,255.309353 73.5,192.5" id="Path" stroke="#0D25FD" stroke-width="10"></path>
            <path d="M182.5,384.5 C282.739929,384.5 364,298.538552 364,192.5 L182.5,192.5 L182.5,384.5 Z" id="Path" fill-opacity="0.5" fill="#FFFFFF" fill-rule="nonzero"></path>
            <path d="M182.5,384.5 C282.463786,384.5 363.5,298.538552 363.5,192.5 C354.630008,193.166667 343.528346,193.5 330.195012,193.5 C325.587722,233.5 289.101071,279.273536 258.5,294.394288 C233.419558,306.78716 208.086224,314.860553 182.5,318.614467" id="Path" fill="#8692FE" fill-rule="nonzero"></path>
            <polygon id="Path" fill-opacity="0.8" fill="#0D25FD" fill-rule="nonzero" points="249.224076 92.5 205.5 103.072395 206.775924 113.5 250.5 102.927605"></polygon>
        </g>
    </g>
</svg>
