<svg width="100%" height="100%" viewBox="0 0 222 223" version="1.1" xmlns="http://www.w3.org/2000/svg" xmlns:xlink="http://www.w3.org/1999/xlink" class='dashed-circle'>
    <defs>
        <path d="M111.5,223 C172.527465,223 222,173.303607 222,112 C222,50.6963928 172.527465,1 111.5,1 C50.4725351,1 1,50.6963928 1,112 C1,173.303607 50.4725351,223 111.5,223 Z" id="circle-border" vector-effect="non-scaling-stroke"></path>
        <mask id="mask-2" maskContentUnits="userSpaceOnUse" maskUnits="objectBoundingBox" x="0" y="0" width="221" height="222" fill="white">
            <use xlink:href="#circle-border"></use>
        </mask>
    </defs>
    <g id="Page-1" stroke="none" stroke-width="1" fill="none" fill-rule="evenodd">
        <use id="Combined-Shape" stroke="#FFFFFF" mask="url(#mask-2)" stroke-width="35" stroke-dasharray="3,8" xlink:href="#circle-border"></use>
        <path d="M221.498283,112 C221.66525,112 221.832129,112.000381 221.998919,112.001141 L221.997364,223 L111.999364,222.999338 C112.261573,162.265063 160.210856,112.996874 219.687501,112.014938 Z" id="Combined-Shape" fill="#0D25FD" transform="translate(166.999142, 167.500000) rotate(-180.000000) translate(-166.999142, -167.500000) "></path>
        <image id="nathan-dumlao-hMReyPJKEUU-unsplash" x="86" y="7.28571429" width="143" height="163.428571" href="/assets/media/nathan-dumlao.png"></image>
        <path d="M111.25233,111.499049 C111.418372,111.499049 111.584305,111.499525 111.750127,111.500475 L111.749,198.999049 L24.75,198.998678 C25.0120773,151.113234 62.8703787,112.285252 109.821833,111.510839 Z" id="Combined-Shape" fill="#FFFFFF" transform="translate(68.250000, 155.249049) rotate(-90.000000) translate(-68.250000, -155.249049) "></path>
        <path d="M111.25233,111.75 C111.418372,111.75 111.584305,111.750476 111.750127,111.751426 L111.749,199.25 L24.75,199.249629 C25.0120773,151.364185 62.8703787,112.536203 109.821833,111.761789 Z" id="Combined-Shape" fill-opacity="0.8" fill="#FFFFFF" transform="translate(68.250000, 155.500000) rotate(-90.000000) translate(-68.250000, -155.500000) "></path>
        <path d="M111.494976,0 C111.663613,0 111.832163,0.000377789972 112.000624,0.00113257694 L111.999,112 L-1.15467181e-07,111.999505 C0.269302899,50.7175927 49.0917764,1.00587234 109.651184,0.0150730037 Z" id="Combined-Shape" fill="#FFFFFF"></path>
        <path d="M221.498283,112 C221.66525,112 221.832129,112.000381 221.998919,112.001141 L221.997364,223 L111.999364,222.999338 C112.261573,162.265063 160.210856,112.996874 219.687501,112.014938 Z" id="Combined-Shape" fill-opacity="0.5" fill="#FFFFFF" transform="translate(166.999142, 167.500000) rotate(-180.000000) translate(-166.999142, -167.500000) "></path>
        <path d="" id="Path" stroke="#979797"></path>
        <path d="M37.2467154,37.2467154 C38.8649296,59.6324595 45.9125545,77.1481537 58.3895902,89.7937979 C70.8666258,102.439442 88.4856676,109.923748 111.246715,112.246715" id="Path-2" stroke="#0D25FD" stroke-width="4" transform="translate(74.246715, 74.746715) rotate(90.000000) translate(-74.246715, -74.746715) "></path>
        <path d="M52,112 C53.3120656,130.207072 59.026356,144.45317 69.1428715,154.738294 C79.2593869,165.023418 93.5450964,171.110653 112,173" id="Path-2" stroke="#0D25FD" stroke-width="4" transform="translate(82.000000, 142.500000) rotate(-360.000000) translate(-82.000000, -142.500000) "></path>
        <path d="M59,112 C60.1589912,128.117736 65.2066145,140.729036 74.1428698,149.833899 C83.0791251,158.938763 95.6981685,164.327463 112,166" id="Path-2" stroke="#0D25FD" stroke-width="2" transform="translate(85.500000, 139.000000) rotate(-360.000000) translate(-85.500000, -139.000000) "></path>
        <path d="" id="Path-4" stroke="#979797"></path>
        <path d="M111.74891,223 L112.245528,176.789732 C130.430626,173.174584 145.723722,165.891186 158.124819,154.939537 C170.525916,143.987888 179.687698,129.674709 185.610165,112 L221.74891,112 C219.807405,145.480571 209.077199,172.068998 189.558293,191.765281 C170.039387,211.461564 144.102926,221.873137 111.74891,223 Z" id="Path-5" fill="#8692D8"></path>
        <rect id="Rectangle" fill-opacity="0.8" fill="#0D25FD" transform="translate(136.503727, 59.560935) rotate(-7.000000) translate(-136.503727, -59.560935) " x="124.003727" y="57.0609347" width="25" height="5"></rect>
    </g>
</svg>